<svg version="1.1" id="Layer_1" xmlns="http://www.w3.org/2000/svg" xmlns:xlink="http://www.w3.org/1999/xlink" x="0px" y="0px"
	 width="100%" viewBox="0 0 528 496" enable-background="new 0 0 528 496" xml:space="preserve">
<path fill="#000000" opacity="1.000000" stroke="none" 
	d="
M294.106140,391.098755 
	C298.137390,390.384491 301.736664,389.726624 305.341888,389.103149 
	C305.643341,389.051056 305.984772,389.230469 306.924408,389.439545 
	C307.754822,394.122772 307.363312,399.067505 307.196808,403.971069 
	C307.104065,406.703461 304.542175,406.691864 302.713562,407.058960 
	C281.261688,411.365662 259.787445,411.707733 238.238403,407.573486 
	C204.483704,401.097534 175.549835,385.576385 151.623184,361.031982 
	C125.304993,334.034332 109.517952,301.780914 105.613213,264.130280 
	C100.612190,215.908875 113.766212,173.266327 145.812958,136.665848 
	C147.318420,134.946457 148.223602,132.619064 151.591568,131.262665 
	C172.978897,167.810684 194.432510,204.471970 215.903503,241.162979 
	C218.592438,240.163010 219.135452,237.894821 220.171921,236.118729 
	C229.489532,220.152039 238.849442,204.208115 247.943298,188.114197 
	C250.093643,184.308655 252.577286,182.748184 257.025635,182.828537 
	C269.346344,183.051102 269.349915,182.853516 269.349884,194.934036 
	C269.349762,230.589340 269.257446,266.245178 269.454559,301.899384 
	C269.482300,306.916992 268.112427,308.600677 262.998962,308.398132 
	C252.416840,307.979004 253.648239,309.043976 253.602127,298.896576 
	C253.475037,270.936676 253.390976,242.976547 253.285843,215.016525 
	C253.283539,214.402039 253.232285,213.787750 253.136246,211.712021 
	C240.729507,233.269379 229.007507,253.636948 216.697998,275.025330 
	C193.976578,235.952652 171.914169,198.013245 149.754013,159.905731 
	C121.805237,193.809341 109.234863,255.914673 135.912323,309.862518 
	C165.350632,369.393463 227.786072,401.995270 294.106140,391.098755 
z"/>
<path fill="#000000" opacity="1.000000" stroke="none" 
	d="
M191.160553,120.193771 
	C185.128494,124.372704 179.410049,128.370026 173.188477,132.719040 
	C169.793594,128.885483 167.531387,124.313248 165.310089,119.788376 
	C164.227676,117.583458 166.578125,116.620872 167.947952,115.568871 
	C190.716431,98.083023 216.141891,86.839493 244.647278,82.612778 
	C276.841003,77.839165 307.914612,81.750740 337.244965,95.725533 
	C390.548828,121.122780 422.934753,163.247070 431.856873,221.582764 
	C439.429382,271.094238 426.008270,315.503357 393.204407,353.776733 
	C376.059784,373.779907 355.257263,388.570709 330.878662,398.415283 
	C329.379211,399.020752 327.959442,400.059540 326.143860,399.613586 
	C324.458832,397.996613 324.952240,395.886963 324.952087,393.961578 
	C324.946869,335.981354 324.968048,278.001160 325.006409,220.020935 
	C325.010712,213.528641 325.363800,213.225403 331.721558,213.117783 
	C332.554443,213.103699 333.387634,213.096130 334.220612,213.101044 
	C341.043793,213.141266 341.300568,213.360046 341.303223,220.096710 
	C341.322449,269.080017 341.325928,318.063324 341.334351,367.046631 
	C341.334686,368.998962 341.334381,370.951294 341.334381,374.517273 
	C379.514160,351.453979 403.697052,319.843872 413.440369,277.643127 
	C426.584900,220.710815 403.942627,159.577316 355.600128,126.224457 
	C302.681580,89.714478 247.462753,88.303734 191.160553,120.193771 
z"/>
<path fill="#000000" opacity="1.000000" stroke="none" 
	d="
M330.000000,182.936523 
	C343.311249,182.917007 356.124207,183.010132 368.932709,182.813080 
	C373.010651,182.750320 374.534180,184.099792 374.411865,188.269012 
	C374.035858,201.087830 376.087372,199.281860 363.228485,199.338409 
	C341.266754,199.435013 319.304291,199.371170 297.342133,199.346970 
	C291.122040,199.340118 290.915619,199.088501 290.893433,192.876602 
	C290.858002,182.961075 290.858002,182.952148 300.549835,182.940292 
	C310.199890,182.928482 319.849945,182.937134 330.000000,182.936523 
z"/>
<path fill="#000000" opacity="1.000000" stroke="none" 
	d="
M179.601898,306.479614 
	C174.970947,309.703735 170.101654,308.349884 165.505112,307.768433 
	C162.767578,307.422089 163.721710,304.201660 163.715500,302.197174 
	C163.646851,280.060120 163.668732,257.922852 163.666534,235.785614 
	C163.665817,228.652756 163.666397,221.519897 163.666397,214.438965 
	C164.389526,214.339188 164.894257,214.176208 164.951965,214.274826 
	C171.973434,226.273071 181.428299,236.843628 180.282410,252.654968 
	C178.998337,270.372650 179.842239,288.244537 179.601898,306.479614 
z"/>
</svg>